<svg width="170" height="29" viewBox="0 0 170 29" fill="none" xmlns="http://www.w3.org/2000/svg">
<g clip-path="url(#clip0_1437_2673)">
<path d="M39.4424 22.5066V13.2073L38.442 13.047C38.2174 13.0069 38.0541 12.9268 37.9112 12.8266C37.7887 12.7063 37.707 12.566 37.707 12.3656V11.2433H39.4424V10.4015C39.4424 9.76021 39.5444 9.15896 39.7486 8.65793C39.9527 8.13685 40.2386 7.69594 40.606 7.33519C40.9735 6.97444 41.4227 6.69386 41.9739 6.51349C42.5047 6.31308 43.1171 6.23291 43.7704 6.23291C44.3012 6.23291 44.7912 6.31308 45.2608 6.45337L45.1995 7.83623C45.1791 8.05668 45.077 8.17693 44.8933 8.23706C44.7096 8.29718 44.485 8.31722 44.24 8.31722C43.9133 8.31722 43.6071 8.35731 43.3621 8.41743C43.0967 8.47755 42.8926 8.61784 42.7088 8.77818C42.5251 8.95855 42.3822 9.17901 42.3005 9.45959C42.1984 9.74017 42.1576 10.1009 42.1576 10.5218V11.2834H45.1791V13.2274H42.2597V22.5467H39.4424V22.5066Z" fill="white"/>
<path d="M55.938 22.5066H54.6926C54.4272 22.5066 54.2231 22.4665 54.0802 22.3863C53.9373 22.3062 53.8148 22.1458 53.7331 21.9254L53.4881 21.1237C53.2023 21.3843 52.9165 21.6047 52.6307 21.8051C52.3448 22.0055 52.059 22.1659 51.7528 22.3062C51.4466 22.4465 51.1403 22.5467 50.7933 22.6068C50.4462 22.6669 50.0787 22.707 49.6704 22.707C49.1804 22.707 48.7313 22.6469 48.323 22.5066C47.9147 22.3863 47.5472 22.1859 47.2614 21.9254C46.9551 21.6648 46.7306 21.3442 46.5673 20.9634C46.4039 20.5826 46.3223 20.1216 46.3223 19.6206C46.3223 19.1997 46.4448 18.7588 46.6693 18.358C46.8939 17.9371 47.2818 17.5563 47.8126 17.2156C48.3434 16.8749 49.0579 16.5943 49.9358 16.3739C50.8137 16.1534 51.9161 16.0332 53.2431 16.0332V15.3718C53.2431 14.6102 53.0798 14.029 52.7532 13.6683C52.4265 13.3075 51.9569 13.1071 51.3241 13.1071C50.8749 13.1071 50.487 13.1673 50.2012 13.2675C49.895 13.3677 49.6296 13.4879 49.4254 13.6082C49.2213 13.7284 48.9967 13.8487 48.813 13.9489C48.6292 14.0491 48.4251 14.1092 48.2005 14.1092C48.0168 14.1092 47.8534 14.0691 47.7105 13.9689C47.5676 13.8687 47.4655 13.7485 47.3839 13.6082L46.8735 12.7263C48.2005 11.5239 49.8133 10.9226 51.6915 10.9226C52.3653 10.9226 52.9777 11.0228 53.5085 11.2433C54.0393 11.4637 54.4885 11.7643 54.856 12.1451C55.2234 12.5259 55.5092 12.9869 55.693 13.528C55.8767 14.0691 55.9788 14.6503 55.9788 15.2916V22.5066H55.938ZM50.5074 20.8031C50.7933 20.8031 51.0587 20.783 51.3037 20.7229C51.5486 20.6628 51.7732 20.6026 51.9774 20.5024C52.2019 20.4022 52.4061 20.282 52.5898 20.1216C52.794 19.9814 52.9981 19.801 53.2023 19.6006V17.6966C52.3857 17.6966 51.712 17.7367 51.1607 17.857C50.6095 17.9572 50.1808 18.0774 49.8541 18.2377C49.5275 18.3981 49.2825 18.5784 49.1396 18.7789C48.9967 18.9793 48.9355 19.2198 48.9355 19.4603C48.9355 19.9413 49.0784 20.282 49.3642 20.5024C49.65 20.7229 50.0583 20.8031 50.5074 20.8031Z" fill="white"/>
<path d="M58.6738 22.5065V11.143H60.3683C60.7358 11.143 60.9604 11.3034 61.0829 11.6441L61.2666 12.4858C61.4708 12.2653 61.6749 12.0649 61.8995 11.8846C62.1241 11.7042 62.3486 11.5438 62.614 11.4036C62.859 11.2633 63.1448 11.1631 63.4306 11.0829C63.7165 11.0027 64.0431 10.9626 64.3902 10.9626C65.1251 10.9626 65.7172 11.1631 66.1867 11.5438C66.6563 11.9246 67.0034 12.4457 67.2483 13.087C67.4321 12.7063 67.6567 12.3856 67.9221 12.1251C68.1875 11.8645 68.4937 11.6441 68.8203 11.4637C69.147 11.3034 69.4941 11.1631 69.8615 11.0829C70.229 11.0027 70.5965 10.9626 70.964 10.9626C71.5969 10.9626 72.1685 11.0629 72.6585 11.2432C73.1484 11.4436 73.5772 11.7242 73.9038 12.085C74.2509 12.4457 74.4959 12.9067 74.6796 13.4277C74.8633 13.9689 74.945 14.5701 74.945 15.2515V22.4865H72.1685V15.2716C72.1685 14.5501 72.0052 14.0089 71.6785 13.6282C71.3519 13.2674 70.8823 13.087 70.2494 13.087C69.9636 13.087 69.6982 13.1271 69.4532 13.2273C69.2082 13.3275 69.0041 13.4678 68.8203 13.6482C68.6366 13.8286 68.4937 14.049 68.3916 14.3296C68.2895 14.6102 68.2283 14.9108 68.2283 15.2716V22.5065H65.4314V15.2716C65.4314 14.51 65.268 13.9488 64.9618 13.6081C64.6556 13.2674 64.186 13.087 63.5736 13.087C63.1652 13.087 62.7978 13.1872 62.4507 13.3877C62.1036 13.5881 61.777 13.8486 61.4708 14.1893V22.5065H58.6738V22.5065Z" fill="white"/>
<path d="M81.0494 7.83616C81.0494 8.07666 81.0085 8.29711 80.9065 8.49753C80.8044 8.69794 80.6819 8.87831 80.5186 9.03865C80.3552 9.19898 80.1715 9.31923 79.9469 9.41943C79.7224 9.51964 79.4978 9.55973 79.2528 9.55973C79.0078 9.55973 78.7832 9.51964 78.5791 9.41943C78.3749 9.31923 78.1708 9.19898 78.0279 9.03865C77.885 8.87831 77.7421 8.69794 77.64 8.49753C77.5379 8.29711 77.4971 8.07666 77.4971 7.83616C77.4971 7.59566 77.5379 7.35516 77.64 7.15475C77.7421 6.93429 77.8646 6.75392 78.0279 6.59359C78.1912 6.43326 78.3749 6.31301 78.5791 6.2128C78.7832 6.11259 79.0282 6.07251 79.2528 6.07251C79.4978 6.07251 79.7428 6.11259 79.9469 6.2128C80.1715 6.31301 80.3552 6.43326 80.5186 6.59359C80.6819 6.75392 80.8044 6.93429 80.9065 7.15475C81.0085 7.37521 81.0494 7.59566 81.0494 7.83616ZM80.6411 11.143V22.5065H77.8645V11.143H80.6411Z" fill="white"/>
<path d="M86.7453 6.05249V22.5065H83.9688V6.05249H86.7453Z" fill="white"/>
<path d="M93.9926 25.633C93.9109 25.8335 93.8088 25.9738 93.6659 26.074C93.5434 26.1742 93.3393 26.2142 93.0535 26.2142H90.9711L93.1351 21.6648L88.46 11.1431H90.8894C91.114 11.1431 91.2977 11.2032 91.3998 11.3034C91.5223 11.4036 91.604 11.5239 91.6652 11.6641L94.1355 17.5563C94.2171 17.7568 94.2988 17.9572 94.3396 18.1576C94.3805 18.358 94.4621 18.5784 94.503 18.7789C94.5642 18.5584 94.6254 18.358 94.7071 18.1576C94.7684 17.9572 94.85 17.7568 94.9317 17.5563L97.259 11.6842C97.3203 11.5439 97.4224 11.4236 97.5653 11.3234C97.7082 11.2232 97.8511 11.1831 98.0348 11.1831H100.26L93.9926 25.633Z" fill="white"/>
<path d="M104.751 6.05249V15.472H105.262C105.445 15.472 105.588 15.4519 105.711 15.3918C105.813 15.3317 105.935 15.2515 106.058 15.1112L108.916 11.624C109.038 11.4837 109.181 11.3635 109.324 11.2833C109.467 11.2031 109.651 11.1631 109.896 11.1631H112.448L108.855 15.3918C108.732 15.5521 108.589 15.6924 108.467 15.8127C108.344 15.9329 108.181 16.0532 108.018 16.1534C108.181 16.2736 108.324 16.3939 108.426 16.5342C108.548 16.6745 108.671 16.8348 108.793 17.0152L112.652 22.5266H110.141C109.916 22.5266 109.733 22.4865 109.59 22.4063C109.447 22.3262 109.304 22.2059 109.181 22.0255L106.241 17.7166C106.119 17.5563 106.017 17.436 105.894 17.3759C105.772 17.3158 105.609 17.2958 105.384 17.2958H104.751V22.5065H101.975V6.05249H104.751Z" fill="white"/>
<path d="M118.471 10.9626C119.206 10.9626 119.88 11.0829 120.492 11.3034C121.105 11.5238 121.635 11.8645 122.085 12.3054C122.534 12.7463 122.881 13.2875 123.126 13.9288C123.371 14.5701 123.493 15.2916 123.493 16.1133C123.493 16.3137 123.493 16.4941 123.473 16.6344C123.452 16.7747 123.412 16.8749 123.371 16.955C123.33 17.0352 123.248 17.0953 123.167 17.1154C123.085 17.1555 122.983 17.1555 122.86 17.1555H115.715C115.797 18.3179 116.123 19.1796 116.674 19.7208C117.226 20.2619 117.961 20.5425 118.879 20.5425C119.328 20.5425 119.716 20.4823 120.043 20.3821C120.37 20.2819 120.655 20.1617 120.9 20.0414C121.145 19.9212 121.35 19.8009 121.533 19.7007C121.717 19.6005 121.901 19.5404 122.064 19.5404C122.187 19.5404 122.268 19.5604 122.35 19.6005C122.432 19.6406 122.513 19.7007 122.575 19.7809L123.391 20.783C123.085 21.1437 122.738 21.4443 122.35 21.6648C121.962 21.9053 121.574 22.1057 121.145 22.246C120.737 22.3863 120.308 22.4865 119.88 22.5466C119.451 22.6067 119.022 22.6268 118.614 22.6268C117.818 22.6268 117.062 22.4865 116.368 22.226C115.674 21.9654 115.082 21.5846 114.572 21.0635C114.061 20.5425 113.653 19.9212 113.367 19.1596C113.081 18.398 112.918 17.5162 112.918 16.5342C112.918 15.7526 113.04 15.0311 113.306 14.3497C113.571 13.6682 113.918 13.067 114.408 12.566C114.878 12.0649 115.47 11.6641 116.164 11.3635C116.838 11.1029 117.614 10.9626 118.471 10.9626ZM118.532 12.9267C117.716 12.9267 117.083 13.1472 116.634 13.6081C116.184 14.049 115.878 14.6904 115.756 15.5321H120.982C120.982 15.1714 120.941 14.8507 120.839 14.53C120.737 14.2094 120.594 13.9488 120.39 13.7083C120.186 13.4678 119.941 13.2875 119.614 13.1472C119.288 13.0069 118.941 12.9267 118.532 12.9267Z" fill="white"/>
<path d="M130.536 10.9626C131.271 10.9626 131.945 11.0829 132.558 11.3034C133.17 11.5238 133.701 11.8645 134.15 12.3054C134.599 12.7463 134.946 13.2875 135.191 13.9288C135.436 14.5701 135.559 15.2916 135.559 16.1133C135.559 16.3137 135.559 16.4941 135.538 16.6344C135.518 16.7747 135.477 16.8749 135.436 16.955C135.395 17.0352 135.314 17.0953 135.232 17.1154C135.15 17.1555 135.048 17.1555 134.926 17.1555H127.78C127.862 18.3179 128.189 19.1796 128.74 19.7208C129.291 20.2619 130.026 20.5425 130.945 20.5425C131.394 20.5425 131.782 20.4823 132.108 20.3821C132.435 20.2819 132.721 20.1617 132.966 20.0414C133.211 19.9212 133.415 19.8009 133.599 19.7007C133.782 19.6005 133.966 19.5404 134.13 19.5404C134.252 19.5404 134.334 19.5604 134.415 19.6005C134.497 19.6406 134.579 19.7007 134.64 19.7809L135.457 20.783C135.15 21.1437 134.803 21.4443 134.415 21.6648C134.027 21.9053 133.64 22.1057 133.211 22.246C132.803 22.3863 132.374 22.4865 131.945 22.5466C131.516 22.6067 131.088 22.6268 130.679 22.6268C129.883 22.6268 129.128 22.4865 128.434 22.226C127.739 21.9654 127.147 21.5846 126.637 21.0635C126.127 20.5425 125.718 19.9212 125.433 19.1596C125.147 18.398 124.983 17.5162 124.983 16.5342C124.983 15.7526 125.106 15.0311 125.371 14.3497C125.637 13.6682 125.984 13.067 126.474 12.566C126.943 12.0649 127.535 11.6641 128.229 11.3635C128.903 11.1029 129.679 10.9626 130.536 10.9626ZM130.598 12.9267C129.781 12.9267 129.148 13.1472 128.699 13.6081C128.25 14.049 127.944 14.6904 127.821 15.5321H133.048C133.048 15.1714 133.007 14.8507 132.905 14.53C132.803 14.2094 132.66 13.9488 132.455 13.7083C132.251 13.4678 132.006 13.2875 131.68 13.1472C131.353 13.0069 131.006 12.9267 130.598 12.9267Z" fill="white"/>
<path d="M137.805 26.2142V11.1431H139.499C139.683 11.1431 139.826 11.1831 139.969 11.2633C140.091 11.3435 140.173 11.4637 140.214 11.6441L140.438 12.6863C140.908 12.1652 141.439 11.7443 142.051 11.4036C142.664 11.0829 143.358 10.9226 144.174 10.9226C144.807 10.9226 145.379 11.0429 145.91 11.3034C146.44 11.5639 146.89 11.9447 147.257 12.4257C147.645 12.9067 147.931 13.528 148.135 14.2495C148.339 14.971 148.441 15.7927 148.441 16.7146C148.441 17.5563 148.319 18.358 148.094 19.0795C147.87 19.801 147.522 20.4223 147.094 20.9634C146.665 21.5045 146.134 21.9053 145.522 22.206C144.909 22.5066 144.215 22.6469 143.46 22.6469C142.806 22.6469 142.255 22.5467 141.786 22.3462C141.337 22.1458 140.928 21.8853 140.561 21.5245V26.1742H137.805V26.2142ZM143.235 13.0871C142.664 13.0871 142.153 13.2073 141.745 13.4478C141.337 13.6883 140.949 14.029 140.602 14.4699V19.5605C140.908 19.9413 141.255 20.2218 141.643 20.3621C142.01 20.5225 142.419 20.5826 142.847 20.5826C143.276 20.5826 143.644 20.5024 143.991 20.3421C144.338 20.1818 144.623 19.9413 144.868 19.6406C145.113 19.32 145.297 18.9192 145.42 18.4382C145.542 17.9572 145.603 17.376 145.603 16.7346C145.603 16.0733 145.542 15.5121 145.44 15.0511C145.338 14.5902 145.175 14.2094 144.971 13.9288C144.766 13.6482 144.521 13.4278 144.236 13.3075C143.929 13.1472 143.603 13.0871 143.235 13.0871Z" fill="white"/>
<path d="M155.362 10.9626C156.097 10.9626 156.77 11.0829 157.383 11.3034C157.995 11.5238 158.526 11.8645 158.975 12.3054C159.424 12.7463 159.771 13.2875 160.016 13.9288C160.261 14.5701 160.384 15.2916 160.384 16.1133C160.384 16.3137 160.384 16.4941 160.363 16.6344C160.343 16.7747 160.302 16.8749 160.261 16.955C160.221 17.0352 160.139 17.0953 160.057 17.1154C159.976 17.1555 159.873 17.1555 159.751 17.1555H152.606C152.687 18.3179 153.014 19.1796 153.565 19.7208C154.116 20.2619 154.851 20.5425 155.77 20.5425C156.219 20.5425 156.607 20.4823 156.934 20.3821C157.26 20.2819 157.546 20.1617 157.791 20.0414C158.036 19.9212 158.24 19.8009 158.424 19.7007C158.608 19.6005 158.791 19.5404 158.955 19.5404C159.077 19.5404 159.159 19.5604 159.241 19.6005C159.322 19.6406 159.404 19.7007 159.465 19.7809L160.282 20.783C159.976 21.1437 159.628 21.4443 159.241 21.6648C158.853 21.9053 158.465 22.1057 158.036 22.246C157.628 22.3863 157.199 22.4865 156.77 22.5466C156.342 22.6067 155.913 22.6268 155.505 22.6268C154.708 22.6268 153.953 22.4865 153.259 22.226C152.565 21.9654 151.973 21.5846 151.462 21.0635C150.952 20.5425 150.544 19.9212 150.258 19.1596C149.972 18.398 149.809 17.5162 149.809 16.5342C149.809 15.7526 149.931 15.0311 150.196 14.3497C150.462 13.6682 150.809 13.067 151.299 12.566C151.768 12.0649 152.361 11.6641 153.055 11.3635C153.708 11.1029 154.484 10.9626 155.362 10.9626ZM155.402 12.9267C154.586 12.9267 153.953 13.1472 153.504 13.6081C153.055 14.049 152.748 14.6904 152.626 15.5321H157.852C157.852 15.1714 157.811 14.8507 157.709 14.53C157.607 14.2094 157.464 13.9488 157.26 13.7083C157.056 13.4678 156.811 13.2875 156.484 13.1472C156.158 13.0069 155.831 12.9267 155.402 12.9267Z" fill="white"/>
<path d="M162.63 22.5065V11.143H164.263C164.549 11.143 164.753 11.2031 164.855 11.3034C164.978 11.4036 165.039 11.5839 165.08 11.8445L165.243 13.2273C165.651 12.5259 166.141 11.9647 166.693 11.5639C167.244 11.1631 167.877 10.9626 168.571 10.9626C169.142 10.9626 169.612 11.0829 170 11.3434L169.653 13.3676C169.632 13.5079 169.571 13.5881 169.51 13.6482C169.428 13.7083 169.326 13.7284 169.204 13.7284C169.081 13.7284 168.938 13.7083 168.734 13.6482C168.53 13.5881 168.285 13.568 167.958 13.568C167.387 13.568 166.876 13.7284 166.468 14.029C166.06 14.3497 165.713 14.8106 165.427 15.4119V22.4865H162.63V22.5065Z" fill="white"/>
<path fill-rule="evenodd" clip-rule="evenodd" d="M25.9072 14.47C25.9072 13.3076 26.5196 12.2854 27.4383 11.6842C26.2747 8.61785 23.294 6.45337 19.7621 6.45337C18.7413 6.45337 17.9043 7.27507 17.9043 8.27714C17.9043 9.27922 18.7413 10.1009 19.7621 10.1009C22.2324 10.1009 24.2331 12.065 24.2331 14.49C24.2331 16.915 22.2324 18.8791 19.7621 18.8791C18.7413 18.8791 17.9043 19.7008 17.9043 20.7029C17.9043 21.7049 18.7413 22.5266 19.7621 22.5266C23.2736 22.5266 26.2747 20.3421 27.4383 17.2958C26.4992 16.6545 25.9072 15.6324 25.9072 14.47Z" fill="white"/>
<path fill-rule="evenodd" clip-rule="evenodd" d="M19.7823 24.7713C13.9843 24.7713 9.26827 20.1617 9.26827 14.49C9.28868 8.81825 13.9843 4.20871 19.7823 4.20871C20.9664 4.20871 21.9259 3.26676 21.9259 2.10435C21.9259 0.941949 20.9664 0 19.7823 0C12.9839 0 7.26755 4.48929 5.53223 10.6019C6.90007 11.3635 7.81876 12.8265 7.81876 14.49C7.81876 16.1534 6.90007 17.6164 5.53223 18.378C7.26755 24.5107 12.9839 29 19.8027 29C20.9868 29 21.9463 28.0581 21.9463 26.8956C21.9463 25.7332 20.9868 24.7713 19.7823 24.7713Z" fill="white"/>
<path d="M29.3166 12.1853C28.0305 12.1853 26.9893 13.2074 26.9893 14.47C26.9893 15.7326 28.0305 16.7548 29.3166 16.7548C30.6028 16.7548 31.644 15.7326 31.644 14.47C31.644 13.2074 30.6028 12.1853 29.3166 12.1853Z" fill="white"/>
<path d="M3.30731 17.7767C5.12429 17.7767 6.61463 16.2937 6.61463 14.4899C6.61463 12.6862 5.12429 11.2031 3.30731 11.2031C1.49033 11.2031 0 12.6662 0 14.4899C0 16.3137 1.49033 17.7767 3.30731 17.7767Z" fill="white"/>
<path d="M3.30731 11.2031C5.12429 11.2031 6.61463 12.6862 6.61463 14.4899C6.61463 16.2937 5.12429 17.7767 3.30731 17.7767C1.49033 17.7767 0 16.3137 0 14.4899C0 12.6662 1.49033 11.2031 3.30731 11.2031Z" fill="white"/>
</g>
<defs>
<clipPath id="clip0_1437_2673">
<rect width="170" height="29" fill="white"/>
</clipPath>
</defs>
</svg>
