<svg xmlns="http://www.w3.org/2000/svg" viewBox="0 0 539.5 100">
<style type="text/css">.st0{fill:#FFFFFF;}.st1{fill:#000000;}</style>
<g>
 <path class="st0" d="M117,11.8l0.3-0.3l-9.5,2.3c-0.1,0-4.7,1.1-12.4,2.3C86,5.9,72.6,0,58.7,0c-14,0-27.3,5.9-36.8,16.1
	c-7.6-1.2-12.3-2.3-12.4-2.3L0,11.5l0.3,0.3l-0.2-0.1l11,22.9c-1.6,5-2.4,10.2-2.4,15.5c0,27.6,22.4,50,50,50s50-22.4,50-50
	c0-5.3-0.8-10.5-2.4-15.5l11-22.9L117,11.8z">
 </path>
 <path class="st1" d="M117.3,11.5l-9.5,2.3c-0.1,0-4.7,1.1-12.4,2.3C86,5.9,72.6,0,58.7,0c-14,0-27.3,5.9-36.8,16.1
	c-7.6-1.2-12.3-2.3-12.4-2.3L0,11.5l0.3,0.3l-0.2-0.1l11,22.9c-1.6,5-2.4,10.2-2.4,15.5c0,27.6,22.4,50,50,50s50-22.4,50-50
	c0-5.3-0.8-10.5-2.4-15.5l11-22.9l-0.2,0.1L117.3,11.5z M96.7,48.8c0-4.4-1.6-8.7-4.5-11.9c1.2-1.5,2.4-2.9,3.5-4.2
	c4.1,4.3,6.4,10,6.4,16c0,12.7-10.2,23-22.8,23.2v-0.1c0,0-0.1,0-0.2,0.1H79c-3.2,0-6.3-0.6-9.2-1.9c0.8-1.5,1.6-2.9,2.4-4.4
	c2.1,0.8,4.3,1.2,6.5,1.2C88.6,66.8,96.7,58.7,96.7,48.8 M87.3,42.9c0.6-0.8,1.2-1.5,1.7-2.2c1.8,2.3,2.8,5.1,2.8,8.1
	c0,2.2-0.5,4.3-1.5,6.1c0.3-1,0.4-2.1,0.4-3.2C90.8,48.4,89.5,45.3,87.3,42.9 M88.2,51.6c0,5.6-4.6,10.2-10.2,10.2
	c-1.1,0-2.2-0.2-3.3-0.5c3.6-6,7.4-11.4,11.1-16.3C87.3,46.8,88.2,49.2,88.2,51.6 M57,90.9c-7.8-0.3-15.3-2.8-21.8-7.3
	c-4.1-2.9-7.7-6.5-10.5-10.6c3.7,2.1,8,3.4,12.6,3.5C40,77.7,51,82.6,57,90.9 M46.5,75.5c1.1-0.3,2.3-0.8,3.3-1.2
	c0.8,1.6,1.6,3.2,2.4,4.9C50.2,77.7,48.3,76.5,46.5,75.5 M65.1,79.1c0.8-1.7,1.6-3.3,2.4-4.9c1.1,0.5,2.2,0.9,3.3,1.2
	C69,76.5,67.1,77.7,65.1,79.1 M80,76.6c4.5-0.2,8.8-1.4,12.5-3.5c-7.2,10.6-19.1,17.3-32.2,17.8C66.3,82.6,77.3,77.7,80,76.6
	 M15.5,64.7c1.2,1.7,2.6,3.3,4.1,4.7c3.2,6.5,8.1,12.2,14.1,16.4c7.3,5.1,15.9,7.8,24.9,7.8c16.6,0,31.6-9.4,39-24.2
	c1.6-1.4,3-3,4.2-4.7c-6.1,17.9-23.1,30.9-43.1,30.9S21.6,82.6,15.5,64.7 M15.2,48.6c0-6,2.3-11.6,6.4-16c1.1,1.3,2.3,2.7,3.5,4.2
	c-2.9,3.3-4.5,7.5-4.5,11.9c0,9.9,8.1,18,18,18c2.2,0,4.4-0.4,6.5-1.2c0.8,1.4,1.6,2.9,2.4,4.4c-2.9,1.2-6,1.9-9.2,1.9h-0.1
	c-0.1,0-0.2-0.1-0.2-0.1v0.1C25.5,71.6,15.2,61.3,15.2,48.6 M27.2,51.6c0,1.9,0.4,3.8,1.2,5.4c-1.8-2.3-2.9-5.1-2.9-8.3
	c0-3,1-5.8,2.8-8.1c0.7,0.9,1.4,1.7,2,2.6C28.3,45.6,27.2,48.6,27.2,51.6 M31.9,45.4c3.6,4.8,7.3,10.2,10.8,16
	c-0.5,0.2-1,0.3-1.5,0.4c-0.4,0-0.8,0.1-1.2,0.1c-5.6,0-10.2-4.6-10.2-10.2C29.8,49.4,30.5,47.2,31.9,45.4 M18.4,29.1
	c-1.1,1.1-2.1,2.3-2.9,3.5L9.4,19.8C11.3,21.6,14.5,24.7,18.4,29.1 M90,16.9c-0.8,0.1-1.7,0.2-2.6,0.3c-8-7-18.1-10.8-28.7-10.8
	C48,6.4,37.9,10.2,30,17.2c-0.9-0.1-1.8-0.2-2.6-0.3C35.8,8.9,47,4.4,58.8,4.4C70.4,4.4,81.6,9,90,16.9 M58.7,9
	c9.2,0,18,3.1,25.2,8.7c-7.3,0.9-15.9,1.5-25.2,1.7h-0.1c-9.2-0.1-17.8-0.8-25.2-1.7C40.6,12.1,49.4,9,58.7,9 M100.8,20.1
	c-3.5,3.5-8.2,8.6-13.4,15c-8.7,10.7-20.3,27-28.7,46.8C50.2,62.1,38.6,45.7,30,35c-5.2-6.4-9.9-11.4-13.4-15
	c8.9,1.6,24.3,3.8,41.9,4.1h0.3C76.5,23.9,91.8,21.7,100.8,20.1 M108,19.8l-6.1,12.8c-0.9-1.2-1.9-2.4-2.9-3.5
	C102.8,24.7,106,21.6,108,19.8">
 </path>
 <path class="st1" d="M261.6,51.2c0.8-4.9,3.9-7.9,8.1-7.9c4.3,0,7.3,3.4,7.6,7.9H261.6z M269.8,34.8c-10.9,0-20.9,8.1-20.9,20.3
	c0,12.8,8.5,20.6,21.2,20.6c9.4,0,17-4.5,19.2-12.8h-11.8c-1,2.6-3.9,4.2-7.2,4.2c-5.1,0-8.3-3.1-8.6-8.8h28.4v-1.6
	C289.9,43.6,282.4,34.8,269.8,34.8">
 </path>
 <path class="st1" d="M184.7,61.1h-0.1l-7.3-25.2h-13.4l10,27.1c2.1,5.6,3.1,8.4,3.1,9.9c0,2.6-2,4.3-5.4,4.3h-4.1v10.3h7.3
	c8.3,0,12.1-1.9,15-9.9l15.1-41.7h-13L184.7,61.1z">
 </path>
 <path class="st1" d="M226.8,66c-5.4,0-7.7-3.7-7.7-11.2c0-7,3.4-10.4,7.7-10.4c4.9,0,7.5,4.3,7.5,10.4
	C234.4,61.3,231.7,66,226.8,66 M230.8,34.8c-4.8,0-8.4,1.8-11,5.4h-0.1V21.4H207v53.2h12v-4.5h0.1c2.5,3.7,6.1,5.6,10.7,5.6
	c12.3,0,17.3-10.6,17.3-21.3C247.1,43.9,241.4,34.8,230.8,34.8">
 </path>
 <path class="st1" d="M145.9,66c-4.9,0-7.6-4.2-7.6-10.2c0-7.9,2.8-11.3,8.2-11.3c3.2,0,6.1,2.2,6.2,5.6H165
	c-0.9-9.7-8.9-15.3-19.1-15.3c-11.9,0-20.3,8.3-20.3,21.1c0,12.2,9,19.8,20.3,19.8c10.4,0,18.3-5.9,19.4-16.3H153
	C152.5,63.8,150.1,66,145.9,66">
 </path>
 <path class="st1" d="M462.1,66c-4.9,0-7.7-4.2-7.7-10.7c0-6.7,3-10.8,7.6-10.8c5.2,0,7.8,4.6,7.8,10.8S467.3,66,462.1,66
	 M462.1,34.8c-12.4,0-20.3,9.3-20.3,20.5c0,11.8,8.4,20.4,20.3,20.4c12.5,0,20.4-9.2,20.4-20.4C482.5,43.5,473.9,34.8,462.1,34.8">
 </path>
 <path class="st1" d="M430.1,51.3c-5.6-1-9.3-1.8-11-2.5c-1.7-0.8-2.6-1.8-2.6-2.9c0-1.9,1.6-2.9,5.4-2.9c3.6,0,5.7,1.4,5.7,4.3
	h11.7c-0.3-8.3-6.6-12.5-17.8-12.5c-8.3,0-17.7,3-17.7,11.8c0,5.8,2.8,9.4,11.6,11.3c3,0.7,6,1.3,8.6,2c2.8,0.7,3.9,1.8,3.9,3.5
	c0,2.5-2.7,4.1-6,4.1c-4.2,0-6.8-2.2-6.8-5.7H403c0.3,9.2,7.3,13.9,18.9,13.9c9,0,18.6-3.6,18.6-13.7
	C440.6,57.1,436.9,52.4,430.1,51.3">
 </path>
 <path class="st1" d="M510.7,34.8c-4.8,0-9.9,2.6-12.2,6.4h-0.1v-5.3H486v38.7h12.7V53.8c0-5,2.4-8.6,6.9-8.6c4.2,0,6.3,2.2,6.3,6.5
	v22.9h12.7V49.5C524.5,39.7,519.9,34.8,510.7,34.8">
 </path>
 <path class="st1" d="M332.7,51.2c0.8-4.9,3.9-7.9,8.1-7.9c4.3,0,7.3,3.4,7.6,7.9H332.7z M340.9,34.8c-10.9,0-20.9,8.1-20.9,20.3
	c0,12.8,8.5,20.6,21.2,20.6c9.4,0,17-4.5,19.2-12.8h-11.8c-1,2.6-3.9,4.2-7.2,4.2c-5.1,0-8.3-3.1-8.6-8.8h28.4v-1.6
	C361.1,43.6,353.6,34.8,340.9,34.8">
 </path>
 <path class="st1" d="M320.6,35.5c-0.9-0.2-1.9-0.3-3-0.3c-5.7,0-9.9,2.8-11.6,7.5h-0.1v-6.8h-12.3v38.7h12.7V55.2
	c0-4.8,3.6-8.9,9.5-8.9c1.8,0,2.9,0.2,4.8,0.7V35.5z">
 </path>
 <path class="st1" d="M387.9,58c0,7-2.2,9.9-7.7,9.9c-3.4,0-5.4-1.4-5.4-4.4c0-2.6,1.7-4.2,5.2-4.9l4.4-1c1.8-0.4,3.1-0.8,3.4-1.1
	V58H387.9z M400.1,47.5c0-8-5-12.7-18-12.7c-11.3,0-17.9,4.3-18.3,13h11.8c0.6-3.2,2.8-4.8,6.3-4.8c3.3,0,6.1,1.5,6.1,4
	c0,2.8-1.8,3.5-5.4,3.9c-2.9,0.4-5.7,0.8-8.9,1.4c-6.5,1.1-11.5,4.3-11.5,11.6c0,7.2,4.8,11.7,13.2,11.7c5.5,0,9.8-1.7,12.7-4.8
	c0.3,2.2,0.4,3.2,0.7,3.6h12.7c-1.1-2.2-1.5-5.3-1.5-8L400.1,47.5L400.1,47.5z">
 </path>
</g>
</svg>
