<svg width="1022" height="226" viewBox="0 0 1022 226" fill="none" xmlns="http://www.w3.org/2000/svg">
<path d="M929.904 223.062C922.196 223.062 915.522 221.652 909.882 218.832C904.242 215.824 899.918 211.688 896.91 206.424C894.09 201.16 892.68 195.05 892.68 188.094C892.68 179.822 894.56 173.054 898.32 167.79C902.268 162.526 907.25 158.296 913.266 155.1C919.282 151.904 925.58 149.272 932.16 147.204C938.928 144.948 945.32 142.88 951.336 141C957.352 138.932 962.24 136.582 966 133.95C969.948 131.318 971.922 127.84 971.922 123.516V106.032C971.922 98.1362 970.7 92.1202 968.256 87.9842C966 83.8482 962.898 81.1222 958.95 79.8062C955.002 78.3022 950.584 77.5502 945.696 77.5502C940.996 77.5502 935.92 78.2082 930.468 79.5242C925.204 80.8402 920.974 83.5662 917.778 87.7022C921.35 88.4542 924.452 90.3342 927.084 93.3422C929.716 96.3502 931.032 100.204 931.032 104.904C931.032 109.604 929.528 113.364 926.52 116.184C923.512 118.816 919.658 120.132 914.958 120.132C909.506 120.132 905.464 118.44 902.832 115.056C900.388 111.484 899.166 107.536 899.166 103.212C899.166 98.3242 900.388 94.3762 902.832 91.3682C905.276 88.3602 908.378 85.5402 912.138 82.9082C916.462 79.9002 922.008 77.3622 928.776 75.2942C935.732 73.0382 943.534 71.9102 952.182 71.9102C959.89 71.9102 966.47 72.8502 971.922 74.7301C977.374 76.4221 981.886 78.9602 985.458 82.3442C990.346 86.8562 993.542 92.4022 995.046 98.9822C996.55 105.374 997.302 113.082 997.302 122.106V200.502C997.302 205.202 997.96 208.586 999.276 210.654C1000.78 212.722 1003.04 213.756 1006.04 213.756C1008.11 213.756 1010.09 213.286 1011.97 212.346C1013.85 211.406 1016.1 209.902 1018.73 207.834L1021.84 212.628C1017.89 215.636 1014.13 218.174 1010.56 220.242C1006.98 222.122 1002.19 223.062 996.174 223.062C990.722 223.062 986.21 222.122 982.638 220.242C979.066 218.362 976.34 215.636 974.46 212.064C972.768 208.304 971.922 203.604 971.922 197.964C966.846 206.424 960.736 212.722 953.592 216.858C946.636 220.994 938.74 223.062 929.904 223.062ZM940.056 211.782C946.26 211.782 951.994 209.996 957.258 206.424C962.71 202.852 967.598 197.494 971.922 190.35V135.078C969.666 138.274 966.376 141 962.052 143.256C957.728 145.324 953.028 147.486 947.952 149.742C942.876 151.81 937.988 154.348 933.288 157.356C928.776 160.176 925.016 163.936 922.008 168.636C919 173.336 917.496 179.446 917.496 186.966C917.496 194.486 919.47 200.502 923.418 205.014C927.554 209.526 933.1 211.782 940.056 211.782Z" fill="#182520"/>
<path d="M861.053 0V190.35C861.053 198.81 862.557 205.108 865.565 209.244C868.761 213.192 874.401 215.166 882.485 215.166V221.088C876.657 220.524 870.829 220.242 865.001 220.242C859.549 220.242 854.285 220.524 849.209 221.088C844.321 221.652 839.809 222.686 835.673 224.19V33.84C835.673 25.38 834.169 19.176 831.161 15.228C828.153 11.092 822.513 9.024 814.241 9.024V3.102C820.257 3.666 826.085 3.948 831.725 3.948C837.177 3.948 842.347 3.666 847.235 3.102C852.311 2.35001 856.917 1.31601 861.053 0ZM801.833 71.91C810.105 71.91 817.813 73.884 824.957 77.832C832.289 81.78 837.177 88.548 839.621 98.136L835.955 100.956C833.323 93.06 829.187 87.326 823.547 83.754C818.095 80.182 811.609 78.396 804.089 78.396C792.997 78.396 783.691 84.13 776.171 95.598C768.839 107.066 765.267 124.738 765.455 148.614C765.455 163.842 766.865 176.532 769.685 186.684C772.693 196.648 777.017 204.168 782.657 209.244C788.485 214.132 795.535 216.576 803.807 216.576C811.703 216.576 818.847 213.192 825.239 206.424C831.631 199.656 835.485 189.692 836.801 176.532L840.185 180.48C838.681 194.768 834.075 205.766 826.367 213.474C818.847 221.182 808.601 225.036 795.629 225.036C783.973 225.036 773.727 222.216 764.891 216.576C756.243 210.936 749.569 202.476 744.869 191.196C740.357 179.916 738.101 165.722 738.101 148.614C738.101 131.506 741.015 117.312 746.843 106.032C752.859 94.564 760.661 86.01 770.249 80.37C780.025 74.73 790.553 71.91 801.833 71.91Z" fill="#182520"/>
<path d="M696.014 5.35791C700.902 5.35791 705.132 7.14391 708.704 10.7159C712.276 14.2879 714.062 18.5179 714.062 23.4059C714.062 28.2939 712.276 32.5239 708.704 36.0959C705.132 39.6679 700.902 41.4539 696.014 41.4539C691.126 41.4539 686.896 39.6679 683.324 36.0959C679.752 32.5239 677.966 28.2939 677.966 23.4059C677.966 18.5179 679.752 14.2879 683.324 10.7159C686.896 7.14391 691.126 5.35791 696.014 5.35791ZM710.678 72.7559V194.862C710.678 202.758 712.276 208.116 715.472 210.936C718.856 213.756 724.402 215.166 732.11 215.166V221.088C728.914 220.9 724.026 220.712 717.446 220.524C711.054 220.148 704.568 219.96 697.988 219.96C691.596 219.96 685.11 220.148 678.53 220.524C671.95 220.712 667.062 220.9 663.866 221.088V215.166C671.574 215.166 677.026 213.756 680.222 210.936C683.606 208.116 685.298 202.758 685.298 194.862V106.596C685.298 98.1359 683.794 91.9319 680.786 87.9839C677.778 83.8479 672.138 81.7799 663.866 81.7799V75.8579C669.882 76.4219 675.71 76.7039 681.35 76.7039C686.802 76.7039 691.972 76.4219 696.86 75.8579C701.936 75.1059 706.542 74.0719 710.678 72.7559Z" fill="#182520"/>
<path d="M648.589 75.8579V81.4979C645.017 81.8739 641.727 83.4719 638.719 86.2919C635.711 89.1119 632.891 94.0939 630.259 101.238L584.011 222.498C583.259 222.498 582.507 222.498 581.755 222.498C581.003 222.498 580.157 222.498 579.217 222.498L527.329 97.5719C524.321 90.2399 521.313 85.8219 518.305 84.3179C515.485 82.6259 513.041 81.7799 510.973 81.7799V75.8579C514.733 76.0459 518.587 76.3279 522.535 76.7039C526.671 76.8919 531.089 76.9859 535.789 76.9859C541.617 76.9859 547.727 76.8919 554.119 76.7039C560.699 76.5159 566.809 76.2339 572.449 75.8579V81.7799C567.749 81.7799 563.519 82.1559 559.759 82.9079C556.187 83.4719 553.837 85.2579 552.709 88.2659C551.769 91.2739 552.709 96.4439 555.529 103.776L590.779 190.914L589.087 192.324L621.235 108.006C623.679 101.802 624.619 96.9139 624.055 93.3419C623.679 89.5819 621.799 86.7619 618.415 84.8819C615.219 83.0019 610.237 81.8739 603.469 81.4979V75.8579C606.853 76.0459 609.767 76.2339 612.211 76.4219C614.655 76.4219 617.005 76.5159 619.261 76.7039C621.705 76.7039 624.337 76.7039 627.157 76.7039C631.481 76.7039 635.335 76.6099 638.719 76.4219C642.291 76.2339 645.581 76.0459 648.589 75.8579Z" fill="#182520"/>
<path d="M472.383 71.9102C477.459 71.9102 481.877 72.9442 485.637 75.0122C489.585 77.0802 492.593 79.8062 494.661 83.1902C496.917 86.3862 498.045 90.0522 498.045 94.1882C498.045 98.8882 496.541 103.024 493.533 106.596C490.713 110.168 486.859 111.954 481.971 111.954C478.023 111.954 474.545 110.732 471.537 108.288C468.529 105.656 467.025 101.99 467.025 97.2902C467.025 93.7182 467.965 90.7102 469.845 88.2662C471.913 85.6342 474.169 83.5662 476.613 82.0622C475.297 80.1822 473.323 79.2422 470.691 79.2422C464.863 79.2422 459.505 81.0282 454.617 84.6002C449.729 87.9842 445.593 92.4022 442.209 97.8542C438.825 103.306 436.193 109.134 434.313 115.338C432.433 121.354 431.493 126.994 431.493 132.258V192.042C431.493 201.254 434.125 207.458 439.389 210.654C444.841 213.662 452.173 215.166 461.385 215.166V221.088C457.061 220.9 450.951 220.712 443.055 220.524C435.159 220.148 426.793 219.96 417.957 219.96C411.565 219.96 405.173 220.148 398.781 220.524C392.577 220.712 387.877 220.9 384.681 221.088V215.166C392.389 215.166 397.841 213.756 401.037 210.936C404.421 208.116 406.113 202.758 406.113 194.862V106.596C406.113 98.1362 404.609 91.9322 401.601 87.9842C398.593 83.8482 392.953 81.7802 384.681 81.7802V75.8582C390.697 76.4222 396.525 76.7042 402.165 76.7042C407.617 76.7042 412.787 76.4222 417.675 75.8582C422.751 75.1062 427.357 74.0722 431.493 72.7562V108.006C433.561 102.554 436.475 97.1022 440.235 91.6502C444.183 86.0102 448.883 81.3102 454.335 77.5502C459.787 73.7902 465.803 71.9102 472.383 71.9102Z" fill="#182520"/>
<path d="M322.295 71.9102C338.839 71.9102 351.717 76.9861 360.929 87.1382C370.329 97.1022 375.029 112.706 375.029 133.95H275.483L275.201 128.592H347.957C348.333 119.38 347.581 110.92 345.701 103.212C343.821 95.3162 340.813 89.0182 336.677 84.3182C332.729 79.6182 327.559 77.2682 321.167 77.2682C312.519 77.2682 304.811 81.5922 298.043 90.2402C291.463 98.8882 287.515 112.612 286.199 131.412L287.045 132.54C286.669 135.36 286.387 138.462 286.199 141.846C286.011 145.23 285.917 148.614 285.917 151.998C285.917 164.782 287.985 175.78 292.121 184.992C296.257 194.204 301.615 201.254 308.195 206.142C314.963 210.842 321.919 213.192 329.063 213.192C334.703 213.192 340.061 212.346 345.137 210.654C350.213 208.774 354.913 205.766 359.237 201.63C363.561 197.494 367.321 191.948 370.517 184.992L376.157 187.248C374.089 193.452 370.705 199.468 366.005 205.296C361.305 211.124 355.383 215.918 348.239 219.678C341.095 223.25 332.823 225.036 323.423 225.036C309.887 225.036 298.231 221.934 288.455 215.73C278.867 209.526 271.441 200.972 266.177 190.068C261.101 178.976 258.563 166.286 258.563 151.998C258.563 135.454 261.195 121.26 266.459 109.416C271.723 97.3842 279.149 88.1722 288.737 81.7802C298.325 75.2002 309.511 71.9102 322.295 71.9102Z" fill="#182520"/>
<path d="M260.891 75.8579V81.4979C257.319 81.8739 254.029 83.4719 251.021 86.2919C248.013 89.1119 245.193 94.0939 242.561 101.238L196.313 222.498C195.561 222.498 194.809 222.498 194.057 222.498C193.305 222.498 192.459 222.498 191.519 222.498L139.631 97.5719C136.623 90.2399 133.615 85.8219 130.607 84.3179C127.787 82.6259 125.343 81.7799 123.275 81.7799V75.8579C127.035 76.0459 130.889 76.3279 134.837 76.7039C138.973 76.8919 143.391 76.9859 148.091 76.9859C153.919 76.9859 160.029 76.8919 166.421 76.7039C173.001 76.5159 179.111 76.2339 184.751 75.8579V81.7799C180.051 81.7799 175.821 82.1559 172.061 82.9079C168.489 83.4719 166.139 85.2579 165.011 88.2659C164.071 91.2739 165.011 96.4439 167.831 103.776L203.081 190.914L201.389 192.324L233.537 108.006C235.981 101.802 236.921 96.9139 236.357 93.3419C235.981 89.5819 234.101 86.7619 230.717 84.8819C227.521 83.0019 222.539 81.8739 215.771 81.4979V75.8579C219.155 76.0459 222.069 76.2339 224.513 76.4219C226.957 76.4219 229.307 76.5159 231.563 76.7039C234.007 76.7039 236.639 76.7039 239.459 76.7039C243.783 76.7039 247.637 76.6099 251.021 76.4219C254.593 76.2339 257.883 76.0459 260.891 75.8579Z" fill="#182520"/>
<path d="M63.732 71.9102C80.276 71.9102 93.154 76.9861 102.366 87.1382C111.766 97.1022 116.466 112.706 116.466 133.95H16.92L16.638 128.592H89.394C89.77 119.38 89.018 110.92 87.138 103.212C85.258 95.3162 82.25 89.0182 78.114 84.3182C74.166 79.6182 68.996 77.2682 62.604 77.2682C53.956 77.2682 46.248 81.5922 39.48 90.2402C32.9 98.8882 28.952 112.612 27.636 131.412L28.482 132.54C28.106 135.36 27.824 138.462 27.636 141.846C27.448 145.23 27.354 148.614 27.354 151.998C27.354 164.782 29.422 175.78 33.558 184.992C37.694 194.204 43.052 201.254 49.632 206.142C56.4 210.842 63.356 213.192 70.5 213.192C76.14 213.192 81.498 212.346 86.574 210.654C91.65 208.774 96.35 205.766 100.674 201.63C104.998 197.494 108.758 191.948 111.954 184.992L117.594 187.248C115.526 193.452 112.142 199.468 107.442 205.296C102.742 211.124 96.82 215.918 89.676 219.678C82.532 223.25 74.26 225.036 64.86 225.036C51.324 225.036 39.668 221.934 29.892 215.73C20.304 209.526 12.878 200.972 7.614 190.068C2.538 178.976 0 166.286 0 151.998C0 135.454 2.632 121.26 7.896 109.416C13.16 97.3842 20.586 88.1722 30.174 81.7802C39.762 75.2002 50.948 71.9102 63.732 71.9102Z" fill="#182520"/>
</svg>
