<svg xmlns="http://www.w3.org/2000/svg" width="120" height="44" fill="none" viewBox="0 0 120 44" aria-hidden="true"><path fill="#ffffff" d="M108.157 35.146q-2.47 0-4.435-.927-1.915-.928-3.074-2.49-1.11-1.61-1.109-3.71 0-2.733 1.814-4.442t5.191-2.343l5.897-1.171q1.763-.342 2.419-1.074.655-.732.655-2.148l.604 5.711-8.466 1.758q-1.713.34-2.671 1.22-.907.88-.907 2.44 0 1.611 1.26 2.588 1.31.975 3.527.976 1.815 0 3.327-.781 1.561-.78 2.419-2.148.907-1.416.907-3.222v-8.542q0-1.758-1.311-2.734-1.26-1.025-3.477-1.025-2.822 0-4.334 1.367t-1.764 3.856l-4.435-.585q.252-2.588 1.613-4.442 1.361-1.904 3.628-2.93 2.268-1.024 5.393-1.024 4.434 0 6.803 2.196T120 17.183v17.23h-4.384v-3.172q-.656 1.61-2.671 2.782-1.967 1.123-4.788 1.123M63.807 34.414V10.056h4.384v2.734q.504-1.416 2.218-2.441t3.98-1.025q2.22 0 4.083.927 1.865.928 2.419 2.783.655-1.71 2.42-2.685 1.813-1.025 4.03-1.025 3.831 0 5.847 2.148 2.016 2.147 2.016 6.248v16.694h-4.486V18.305q0-2.44-1.108-3.66-1.06-1.27-3.125-1.27-2.268 0-3.528 1.562-1.21 1.515-1.21 4.442v15.035h-4.484V18.305q0-2.44-1.11-3.66-1.057-1.27-3.124-1.27-2.268 0-3.528 1.562-1.21 1.515-1.21 4.442v15.035zM46.656 43.2q-4.687 0-7.61-2.099t-3.73-5.857l4.385-.928q.555 2.392 2.369 3.71 1.814 1.367 4.586 1.367 3.325 0 4.989-1.66 1.713-1.61 1.713-4.832v-3.857q-.755 1.805-2.822 2.93-2.016 1.122-4.535 1.122-3.327 0-5.846-1.464-2.52-1.515-3.931-4.198-1.411-2.685-1.411-6.2 0-3.563 1.41-6.248 1.412-2.685 3.881-4.149 2.52-1.513 5.897-1.513 2.52 0 4.586 1.122 2.115 1.074 2.872 2.685v-3.075h4.385V32.9q0 3.22-1.31 5.516-1.31 2.343-3.83 3.563-2.47 1.22-6.048 1.22m-.101-13.96q3.225 0 5.14-2.197 1.965-2.196 1.966-5.809 0-3.66-1.966-5.857t-5.14-2.197q-3.225 0-5.191 2.197-1.915 2.197-1.915 5.857 0 3.612 1.965 5.81 1.966 2.195 5.14 2.196M25.761 34.414V10.056h4.486v24.358zm-.05-27.482V0h4.586v6.932zM0 34.414V0h4.737v34.414zm.958-14.547v-4.149h19.301v4.15zm0-15.669V0h21.166v4.198z"></path></svg>



























