<svg version="1.1" id="Layer_1" xmlns="http://www.w3.org/2000/svg" xmlns:xlink="http://www.w3.org/1999/xlink" x="0px" y="0px" viewBox="0 0 247 55.8" style="enable-background:new 0 0 247 55.8;" xml:space="preserve">
 <style type="text/css">
  .st0{fill:#FFFFFF;}
 </style>
 <g>
  <g>
   <path class="st0" d="M70.2,45.3V8.1h22.7v7.2H78.8v10h14.1v7.1H78.8v12.9H70.2z">
   </path>
   <path class="st0" d="M98.6,45.3V19.7h8.1V25c0.4-1.8,1.3-3.3,2.6-4.3c1.3-1,2.8-1.5,4.4-1.5c0.8,0,1.6,0.1,2.1,0.2V27
			c-1-0.1-1.8-0.2-2.4-0.2c-4.5,0-6.7,2.9-6.7,8.5v9.9H98.6z">
   </path>
   <path class="st0" d="M129.8,45.9c-3.7,0-6.7-1.3-8.8-3.8c-2.2-2.5-3.2-5.8-3.2-9.7c0-3.9,1.1-7.1,3.3-9.7c2.2-2.5,5.2-3.8,8.8-3.8
			c1.8,0,3.4,0.4,4.8,1.2c1.4,0.8,2.5,1.8,3.2,3.2v-3.7h8.1v25.6h-8.1v-3.6c-0.7,1.3-1.8,2.3-3.3,3.1
			C133.2,45.6,131.6,45.9,129.8,45.9z M132.1,39.2c1.9,0,3.5-0.6,4.5-1.9s1.6-2.9,1.6-4.8c0-1.9-0.5-3.5-1.6-4.8s-2.6-1.9-4.5-1.9
			c-1.8,0-3.3,0.6-4.4,1.9c-1.1,1.2-1.7,2.9-1.7,4.8c0,2,0.6,3.6,1.7,4.9C128.8,38.6,130.3,39.2,132.1,39.2z">
   </path>
   <path class="st0" d="M152.7,45.3V19.7h8.1v3.7c0.6-1.3,1.5-2.4,2.8-3.2c1.3-0.8,2.8-1.2,4.5-1.2c4,0,6.7,1.6,8,4.7
			c0.7-1.4,1.8-2.6,3.2-3.4c1.5-0.9,3.1-1.3,4.9-1.3c6.1,0,9.1,3.5,9.1,10.4v15.9h-8.2V30.9c0-3.4-1.3-5-3.8-5
			c-2.9,0-4.3,2.1-4.3,6.3v13.2H169V30.8c0-3.3-1.3-5-3.8-5c-1.4,0-2.5,0.5-3.2,1.4c-0.7,0.9-1.1,2.6-1.1,4.9v13.2H152.7z">
   </path>
   <path class="st0" d="M225.1,31.1c0,1.1-0.1,2.2-0.2,3.6h-18.9c0.1,1.7,0.6,3,1.7,3.9c1.1,0.9,2.5,1.4,4.3,1.4
			c2.5,0,4.1-0.8,4.8-2.4h8c-0.4,2.5-1.8,4.6-4.1,6.1c-2.4,1.6-5.2,2.4-8.6,2.4c-4.4,0-7.8-1.2-10.3-3.6c-2.5-2.4-3.8-5.7-3.8-10
			c0-4.2,1.3-7.5,3.8-9.9c2.5-2.4,5.9-3.6,10-3.6c4,0,7.2,1.1,9.7,3.4C223.8,24.6,225.1,27.5,225.1,31.1z M205.9,29.6H217
			c0-1.7-0.5-3-1.4-3.9c-0.9-0.9-2.2-1.4-4-1.4c-1.7,0-3.1,0.5-4.1,1.5C206.5,26.8,206,28.1,205.9,29.6z">
   </path>
   <path class="st0" d="M229.7,45.3V19.7h8.1V25c0.4-1.8,1.3-3.3,2.6-4.3c1.3-1,2.8-1.5,4.4-1.5c0.8,0,1.6,0.1,2.1,0.2V27
			c-1-0.1-1.8-0.2-2.4-0.2c-4.5,0-6.7,2.9-6.7,8.5v9.9H229.7z">
   </path>
  </g>
  <g>
   <g>
    <path class="st0" d="M37.2,0v18.6H18.6L0,0H37.2z M0,18.6h18.6l18.6,18.6H18.6v18.6L0,37.2V18.6z">
    </path>
   </g>
  </g>
 </g>
</svg>



























