<svg xmlns="http://www.w3.org/2000/svg" viewBox="25 155 610 175">
<style type="text/css">.st0{fill:#000;}.st1{fill:#000;}</style>
<path class="st0" d="M439.2,202.5h19.2v92.6h-19.2V202.5z M494.2,200.8c-12.1,0-24,7.3-30.5,15c-0.2,0.3-0.3,0.6-0.3,0.9
	c0,1.1,1.2,1.7,2.1,1.2c5.6-3.4,11.2-5.2,17.5-5.2c13.2,0,18.9,7,18.9,19.1v63.4h19.2v-66.9C521,211.6,511.8,200.8,494.2,200.8
	L494.2,200.8z M249.1,202.5h19.2v92.6h-19.2L249.1,202.5L249.1,202.5z M304.1,200.8c-12.1,0-24,7.3-30.5,15
	c-0.2,0.3-0.3,0.6-0.3,0.9c0,1.1,1.2,1.7,2.2,1.2c5.6-3.4,11.2-5.2,17.5-5.2c13.2,0,18.9,7,18.9,19.1v63.4H331v-66.9
	C330.9,211.6,321.7,200.8,304.1,200.8L304.1,200.8z M541,202.5h18.9v92.6H541V202.5z M554.6,166.2c5.5,2.3,8.1,8.6,5.8,14.1
	c-2.3,5.5-8.6,8.1-14.1,5.8c-5.5-2.3-8.1-8.6-5.8-14.1C542.8,166.5,549.1,163.9,554.6,166.2L554.6,166.2z M393.4,282.7
	c-3.1,2.3-7.3,4.7-13.3,4.7c-10.6,0-13.9-6.7-13.9-15.9c0-6.8,4.1-11.9,7.7-14.6c4.3-3.3,13.1-7.5,20.6-10.2c0.7-0.3,1.2-1,1-1.8
	s-1.1-1.2-1.8-1c-11.3,2.8-24.3,6-28.9,7.9c-7.7,3.3-17,9.1-17,22.8c0,11,7,22.5,24,22.5c12.3,0,19.6-7,23.6-12.4
	c0.3-0.4,0.3-0.8,0.1-1.3C395.1,282.5,394.1,282.2,393.4,282.7L393.4,282.7z M391.7,200.8c-0.4,0-0.7,0-1.1,0
	c-17,0.2-35.7,7.9-36,20.1c-0.1,5.5,3.6,10.2,9,11c6.7,1,12.5-4.1,12.5-10.6c0-4.3-2.6-8.1-6.3-9.8c-1.1-0.5-0.9-2.2,0.3-2.5
	c4.4-1,9.6-1.2,15-0.6c9,1,15.8,8.2,15.8,17.3v69.5h19.2v-70C420.1,207.8,408.4,200.8,391.7,200.8L391.7,200.8z M605.2,176.2h-18.9
	v26.4h-13.2v6.4h13.2v62.3c0,18.8,11.6,25.7,24,25.7c11.8,0,17.7-5.3,21-9.8c0.2-0.3,0.3-0.6,0.3-0.9c0-1.1-1.2-1.8-2.1-1.3
	c-2.6,1.3-5.8,2.5-10.9,2.5c-7,0-13.3-3.7-13.3-15.4v-63h26.4v-6.4h-26.4L605.2,176.2L605.2,176.2z"/>
<path class="st1" d="M159.6,164H61.8c-16.7,0-30.2,13.5-30.2,30.2v98c0,16.7,13.5,30.2,30.2,30.2h98c16.7,0,30.2-13.5,30.2-30.2v-98
	C189.8,177.5,176.3,164,159.6,164L159.6,164z M157.8,195.6v92.6c0,1.1-0.9,2-2,2H63.2c-1.1,0-2-0.9-2-2v-92.6c0-1.1,0.9-2,2-2h92.6
	C156.9,193.6,157.8,194.5,157.8,195.6L157.8,195.6z M49,283.5c-6-11.2-9.4-24.6-9.4-38.9s3.4-27.7,9.4-38.9V283.5z M151.1,305
	c-11.2,6-24.6,9.4-38.9,9.4S84.5,311,73.3,305H151.1z M172.6,205.7c6,11.2,9.4,24.6,9.4,38.9s-3.4,27.7-9.4,38.9V205.7z M73.2,181.5
	c11.2-6,24.6-9.4,38.9-9.4s27.7,3.4,38.9,9.4H73.2z M39.6,194.2c0-12.2,9.9-22.1,22.2-22.1h12.7c-14.9,7.9-27,20.1-34.9,34.9
	C39.6,207,39.6,194.2,39.6,194.2z M61.9,314.4c-5.9,0-11.6-2.3-15.7-6.5c-4.2-4.2-6.5-9.8-6.5-15.7v-12.7
	c7.7,14.9,20,27.2,34.9,34.9L61.9,314.4L61.9,314.4z M182,292.2c0,5.9-2.3,11.6-6.5,15.7c-4.2,4.2-9.8,6.5-15.7,6.5H147
	c14.9-7.7,27.2-20,34.9-34.9v12.7H182z M147,172.1h12.7c5.9,0,11.6,2.3,15.7,6.5c4.2,4.2,6.5,9.8,6.5,15.7V207
	C174.2,192.1,161.9,179.8,147,172.1L147,172.1z"/>
</svg>
