<svg xmlns="http://www.w3.org/2000/svg" viewBox="0 0 190.25 38"><defs><style>.cls-1{fill:#000;}.cls-2{fill:#000;}.cls-3{fill:#fff;}</style></defs><g id="Layer_2" data-name="Layer 2"><g id="logo_barra_navbar" data-name="logo barra navbar"><path id="car" class="cls-2" d="M15,30.62a2.6,2.6,0,1,1-2.6-2.6h0A2.6,2.6,0,0,1,15,30.62ZM28.88,28a2.6,2.6,0,1,0,2.6,2.6A2.6,2.6,0,0,0,28.88,28ZM36.67,9.74,35.42,13H10.26a.06.06,0,0,0-.06.06v3a.06.06,0,0,0,.06.06H34.21l-3.55,9.1a2.6,2.6,0,0,1-2.32,1.38H11.81a2.23,2.23,0,0,1-2.14-1.41l-3.79-15L2.77,6.76l-.06-.07h-2A.68.68,0,0,1,0,6.08v-.7a.68.68,0,0,1,.74-.6H4.56a.79.79,0,0,1,.64.3.57.57,0,0,1,.16.12L8.24,8.36H35.43C36.41,8.36,37,9,36.67,9.74ZM13.1,21.19a.06.06,0,0,0,.06.06H30a.06.06,0,0,0,.06-.06v-3a.06.06,0,0,0-.06-.06H13.16a.06.06,0,0,0-.06.06Z"/><g id="circle"><circle class="cls-1" cx="33.97" cy="9.92" r="9.92"/><path class="cls-3" d="M26.27,11.05V8.55a0,0,0,0,1,0,0h15.1a0,0,0,0,1,0,0v2.51a0,0,0,0,1,0,0H26.31A0,0,0,0,1,26.27,11.05Zm9.89,2.78a2.29,2.29,0,1,0-2.29,2.3,2.29,2.29,0,0,0,2.29-2.3h0Zm0-8.24a2.29,2.29,0,1,0-2.29,2.3,2.29,2.29,0,0,0,2.29-2.3h0"/></g><path class="cls-2" d="M46.84,26.68V6.14a39.48,39.48,0,0,1,6.36-.44,11.11,11.11,0,0,1,5.9,1.36,5.6,5.6,0,0,1,2.68,5.13,6.45,6.45,0,0,1-1.92,4.95q-2.34,2.2-6.76,2.2a11,11,0,0,1-1.61-.11v7.45ZM51.5,9.41v6.18a7.92,7.92,0,0,0,1.58.12,4.67,4.67,0,0,0,2.84-.8,3,3,0,0,0,1.21-2.59q0-3.06-3.68-3.06A9.54,9.54,0,0,0,51.5,9.41Z"/><path class="cls-2" d="M79.9,26.68h-6.7l-.27-1.51h-.11A5.24,5.24,0,0,1,68.52,27a4.85,4.85,0,0,1-3.6-1.4,4.47,4.47,0,0,1-1.28-3.23A4.82,4.82,0,0,1,66.06,18,12.26,12.26,0,0,1,72.5,16.6v-.2q0-2-2.76-1.95a8,8,0,0,0-4.18,1.12l-.86-3a11.64,11.64,0,0,1,5.87-1.36q6.62,0,6.62,6.53V22A1.51,1.51,0,0,0,78,23.53a5.24,5.24,0,0,0,1.87.23Zm-7.27-5.49V19.53q-4.37,0-4.37,2.38a1.62,1.62,0,0,0,1.85,1.81,2.51,2.51,0,0,0,1.52-.5A2.37,2.37,0,0,0,72.54,22,2.77,2.77,0,0,0,72.63,21.19Z"/><path class="cls-2" d="M91.89,15.73a6.38,6.38,0,0,0-1.28-.14q-2.72,0-3.21,2.4a4.93,4.93,0,0,0-.09,1v7.65H82.6V16.24a1.48,1.48,0,0,0-.84-1.52,5.18,5.18,0,0,0-1.86-.23V11.57h6.61l.18,2.79h.12A4.75,4.75,0,0,1,88.59,12a4,4,0,0,1,2.29-.74,4.77,4.77,0,0,1,1,.09Z"/><path class="cls-2" d="M105.13,22.85l.56,3.45a9.92,9.92,0,0,1-4.21.72A8.06,8.06,0,0,1,95.69,25a7.52,7.52,0,0,1-2.2-5.72A7.51,7.51,0,0,1,96,13.33a9,9,0,0,1,6.17-2.1,10.18,10.18,0,0,1,3.59.59L105,15.31a6.82,6.82,0,0,0-2.62-.45,3.86,3.86,0,0,0-3,1.17,4.29,4.29,0,0,0-1.09,3.05,4.24,4.24,0,0,0,1.12,3.08,4,4,0,0,0,3,1.16A7.38,7.38,0,0,0,105.13,22.85Z"/><path class="cls-2" d="M121.62,20.63h-9.73a2.63,2.63,0,0,0,1.51,2.25,5.74,5.74,0,0,0,2.76.62,13.48,13.48,0,0,0,4.16-.62l.62,3.18a14.31,14.31,0,0,1-5.46,1,8.26,8.26,0,0,1-5.85-2,7.42,7.42,0,0,1-2.22-5.73,8.43,8.43,0,0,1,1.86-5.47A7,7,0,0,1,115,11.23a6.11,6.11,0,0,1,5.19,2.35,8.33,8.33,0,0,1,1.54,5.19A9.37,9.37,0,0,1,121.62,20.63Zm-9.76-3.21h5.57a3.59,3.59,0,0,0-.53-1.95,2.37,2.37,0,0,0-2.14-1.12,2.53,2.53,0,0,0-2,.94A3.79,3.79,0,0,0,111.86,17.42Z"/><path class="cls-2" d="M130.11,26.68H125.4V9.45a1.52,1.52,0,0,0-.84-1.55,5.44,5.44,0,0,0-1.86-.21V4.75h7.41Z"/><path class="cls-2" d="M149.17,26.68h-6.7l-.27-1.51h-.11A5.24,5.24,0,0,1,137.79,27a4.85,4.85,0,0,1-3.6-1.4,4.47,4.47,0,0,1-1.28-3.23A4.82,4.82,0,0,1,135.33,18a12.26,12.26,0,0,1,6.44-1.42v-.2q0-2-2.76-1.95a8,8,0,0,0-4.18,1.12l-.86-3a11.64,11.64,0,0,1,5.87-1.36q6.62,0,6.62,6.53V22a1.51,1.51,0,0,0,.84,1.55,5.24,5.24,0,0,0,1.87.23Zm-7.27-5.49V19.53q-4.37,0-4.37,2.38a1.62,1.62,0,0,0,1.85,1.81,2.51,2.51,0,0,0,1.52-.5,2.37,2.37,0,0,0,.91-1.24A2.77,2.77,0,0,0,141.9,21.19Z"/><path class="cls-1" d="M161.53,19V5.86h4.69V19q0,8-7.42,8a10.39,10.39,0,0,1-3.42-.5l.53-3.8a8.16,8.16,0,0,0,2.41.36,2.88,2.88,0,0,0,2.61-1.18A5.7,5.7,0,0,0,161.53,19Z"/><path class="cls-1" d="M182.57,17.75V23a23.67,23.67,0,0,0,.21,3.68h-4.22l-.29-1.51h-.09A5.24,5.24,0,0,1,173.86,27a4.77,4.77,0,0,1-3.59-1.43,4.43,4.43,0,0,1-1.3-3.21,4.89,4.89,0,0,1,3-4.69,13.51,13.51,0,0,1,5.85-1.09v-.21q0-1.95-2.74-1.95a7.89,7.89,0,0,0-4.18,1.15l-.86-3a11.86,11.86,0,0,1,5.87-1.33Q182.57,11.23,182.57,17.75ZM178,21.17V19.54q-4.39,0-4.39,2.38,0,1.78,1.85,1.78a2.67,2.67,0,0,0,1.52-.47A2.21,2.21,0,0,0,177.9,22,2.93,2.93,0,0,0,178,21.17ZM176.76,5.05h4.33l-3.77,4.71H174.1Z"/></g></g></svg>


