<svg version="1.1" id="Layer_1" xmlns="http://www.w3.org/2000/svg" xmlns:xlink="http://www.w3.org/1999/xlink" x="0px" y="0px" viewBox="0 0 485.9 81" style="enable-background:new 0 0 485.9 81;" xml:space="preserve">
 <style type="text/css">
  .st0{fill-rule:evenodd;clip-rule:evenodd;fill:#FFFFFF;}
	.st1{fill:#FFFFFF;}
 </style>
 <g>
  <path class="st0" d="M129.9,0L88.4,81H49.5l17.3-33.6h-0.8C51.8,66,30.4,78.2,0,81V47.9c0,0,19.5-1.1,30.9-13.2H0V0h34.7v28.6
		l0.8,0L49.7,0h26.3v28.4l0.8,0L91.4,0H129.9z">
  </path>
  <path class="st1" d="M355.8,72.1H367V7.9h-11.2V72.1z">
  </path>
  <path class="st0" d="M294.2,71.4c2.4,1,4.9,1.5,7.4,1.5c4.2,0,7.9-1,11.1-3c3.3-2,5.8-4.8,7.6-8.4c1.8-3.6,2.7-7.6,2.7-12.2
		s-0.9-8.6-2.8-12.2c-1.9-3.6-4.4-6.3-7.7-8.3c-3.3-2-7.1-3-11.3-2.9c-2.7,0-5.2,0.5-7.7,1.6c-2.5,1-4.5,2.5-6.1,4.4
		c-0.1,0.1-0.2,0.3-0.4,0.4V7.9h-11.2v64.1h11.1l0-6c0.3,0.4,0.6,0.7,0.9,1C289.6,68.9,291.7,70.4,294.2,71.4z M305.6,61
		c-1.8,1.1-3.9,1.7-6.3,1.7c-2.3,0-4.5-0.6-6.4-1.7c-1.9-1.2-3.5-2.8-4.6-4.8c-1.1-2-1.7-4.3-1.7-6.9c0-2.6,0.5-4.9,1.6-6.9
		c1.1-2,2.7-3.6,4.6-4.8c1.9-1.1,4.1-1.7,6.4-1.7c2.3,0,4.4,0.5,6.3,1.6c1.9,1.1,3.3,2.7,4.3,4.7c1,2,1.5,4.3,1.5,7
		c0,2.6-0.5,4.9-1.5,7C308.9,58.3,307.5,59.9,305.6,61z">
  </path>
  <path class="st1" d="M146.1,11.8h12.8l11.4,41.7l12.2-41.7h10.6l13.2,40.9l11-40.9H229l-17.3,60.3h-11l-13.4-40l-12.3,40h-11.1
		L146.1,11.8z">
  </path>
  <path class="st0" d="M247.8,73.1c-4.5,0-8.5-1-12-2.9c-3.6-2-6.3-4.8-8.4-8.4c-2-3.6-3-7.7-3-12.2c0-4.5,1-8.5,3.1-12.1
		c2.1-3.6,4.9-6.4,8.4-8.4c3.6-2,7.5-3,11.9-3c4.9,0,9.2,1.1,12.9,3.3c3.7,2.2,6.5,5.3,8.3,9.3c1.9,4,2.5,8.6,2,13.7h-35.1
		c0.1,2.1,0.6,3.9,1.5,5.6c1,1.9,2.5,3.3,4.3,4.3c1.9,1,3.9,1.6,6.2,1.6c1.7,0,3.4-0.3,4.9-0.9c1.5-0.6,2.8-1.4,3.8-2.4
		c1.1-1,1.8-2.2,2.3-3.4h11.7c-0.7,3.1-2.1,5.9-4.3,8.4c-2.1,2.4-4.8,4.3-8,5.7C255.2,72.5,251.7,73.2,247.8,73.1z M237.5,41
		c-0.7,1.1-1.1,2.4-1.4,3.7h23.3c-0.2-1.7-0.7-3.2-1.5-4.5c-1-1.6-2.3-2.9-4-3.7c-1.7-0.9-3.6-1.4-5.7-1.4c-2.3,0-4.3,0.5-6.2,1.6
		C240.1,37.7,238.6,39.1,237.5,41z">
  </path>
  <path class="st1" d="M331.3,26.9c0-3.7,0.8-6.9,2.5-9.7c1.7-2.9,4-5.1,7-6.7c3-1.6,6.6-2.4,10.6-2.5v10c-1.9,0-3.5,0.4-4.8,1.2
		c-1.3,0.7-2.3,1.8-3,3.2c-0.7,1.3-1,2.8-1.1,4.5h8.7v9.5h-8.7v35.7h-11.2V36.4h-7.2v-9.5H331.3z">
  </path>
  <path class="st0" d="M395.4,73c-4.6,0-8.6-1-12.2-3c-3.6-2-6.4-4.8-8.4-8.4c-2-3.6-3-7.6-3-12.2c0-4.6,1-8.6,3-12.2
		c2-3.6,4.9-6.4,8.4-8.4c3.6-2,7.7-3,12.2-3c4.6,0,8.7,1,12.3,3c3.6,2,6.5,4.8,8.5,8.4c2,3.6,3,7.7,3.1,12.2c0,4.5-1.1,8.6-3.1,12.2
		c-2,3.6-4.8,6.3-8.4,8.4C404.1,72,400,73,395.4,73z M395.4,62.8c2.4,0,4.5-0.5,6.4-1.6c1.9-1.1,3.3-2.7,4.3-4.7
		c1-2,1.5-4.3,1.5-6.9c0-2.6-0.5-4.9-1.5-7c-1-2-2.4-3.6-4.3-4.7c-1.9-1.1-4-1.7-6.4-1.7c-2.4,0-4.5,0.6-6.3,1.7
		c-1.8,1.1-3.2,2.6-4.3,4.7c-1,2-1.5,4.3-1.5,7c0,2.6,0.5,4.9,1.5,6.9c1,2,2.5,3.6,4.3,4.7C390.9,62.2,393,62.8,395.4,62.8z">
  </path>
  <path class="st1" d="M431.3,26.9h-12.5l13.5,45.1h10.9l8.9-28.8l9.6,28.8h10.7l13.5-45.1h-11.3L467,55l-8.5-28.1h-10.9l-8.4,28.7
		L431.3,26.9z">
  </path>
 </g>
</svg>



























