<svg width="82" height="19" viewBox="0 0 82 19" fill="none" xmlns="http://www.w3.org/2000/svg">
<path d="M34.9982 0.949338C35.3138 1.19467 35.5774 1.49957 35.7738 1.84648L45.4916 17.8815C45.5925 18.0481 45.4726 18.261 45.2778 18.261H40.7076C40.532 18.261 40.3692 18.1689 40.2789 18.0184L38.2376 14.6177L30.8525 14.6023C30.6599 14.6019 30.54 14.393 30.6369 14.2266L32.1941 11.5507C32.2389 11.4738 32.3212 11.4264 32.4102 11.4264H36.34L33.6147 6.87887L27.5656 17.0684C27.484 17.2059 27.2962 17.2325 27.1796 17.1231L24.2877 14.4098C24.2016 14.3291 24.1837 14.1992 24.2447 14.0983L31.651 1.83524C31.8489 1.48707 32.1167 1.18311 32.4381 0.942324C32.8097 0.674635 33.259 0.534407 33.7181 0.542846C34.1785 0.53288 34.6291 0.675951 34.9982 0.949338Z" fill="white"/>
<path d="M55.2626 11.0832V0.880258C55.2626 0.742187 55.3746 0.630258 55.5126 0.630258H59.3247C59.4628 0.630258 59.5747 0.742187 59.5747 0.880258V15.9792C59.5747 16.704 59.3766 17.2975 58.9858 17.7409C58.7845 17.9708 58.5351 18.1543 58.2549 18.2781C57.9747 18.4018 57.6704 18.4631 57.3638 18.4573C56.684 18.4573 56.0595 18.1781 55.5048 17.6283L45.6924 7.82788V15.1892C45.6924 15.442 45.3601 15.5351 45.2288 15.319L41.4459 9.094C41.4031 9.02369 41.3805 8.943 41.3805 8.86073V3.03935C41.3549 2.40661 41.562 1.78625 41.9631 1.29399C42.1696 1.05706 42.4265 0.868661 42.7153 0.742393C43.0042 0.616126 43.3176 0.555149 43.633 0.563869C43.9587 0.563801 44.2805 0.634391 44.5759 0.770703C44.8863 0.920983 45.1677 1.12446 45.407 1.37179L55.2626 11.0832Z" fill="white"/>
<path d="M80.8698 5.89178C80.4732 4.8663 79.864 3.93503 79.0817 3.15832C78.2995 2.3816 77.3616 1.77677 76.329 1.38301C75.2195 0.9577 74.0389 0.745207 72.8499 0.756798H68.9655C67.8067 0.747048 66.6563 0.955266 65.5753 1.37045C64.5548 1.76694 63.625 2.36322 62.8412 3.12381C62.0508 3.9001 61.4326 4.83185 61.0262 5.85931C60.5875 6.9701 60.368 8.15422 60.3793 9.34728C60.3705 10.5456 60.5868 11.735 61.0176 12.8544C61.4232 13.9078 62.0348 14.871 62.8173 15.6887C63.5944 16.4902 64.5231 17.1317 65.5502 17.5761C66.629 18.0419 67.7943 18.2774 68.9706 18.2674H72.8525C74.5859 18.2944 76.2855 17.7894 77.7188 16.8212C79.1522 15.853 80.2497 14.469 80.8612 12.858C81.2922 11.7388 81.5087 10.5494 81.4994 9.35104C81.5125 8.16873 81.2989 6.99472 80.8698 5.89178ZM72.8524 13.8486H68.9655C68.3958 13.8542 67.831 13.7431 67.3065 13.5223C66.8163 13.3157 66.374 13.0119 66.0062 12.6294C65.6304 12.2313 65.338 11.763 65.1462 11.2517C64.9308 10.6842 64.8231 10.0821 64.8283 9.47566C64.8201 8.87088 64.9271 8.27002 65.1436 7.70468C65.3374 7.20497 65.6288 6.74824 66.0011 6.36074C66.3693 5.98403 66.8107 5.68571 67.2988 5.48397C67.8277 5.2716 68.3943 5.16684 68.9648 5.17585H72.8518C73.4354 5.16937 74.0142 5.27822 74.5549 5.49605C75.0552 5.69436 75.508 5.99469 75.884 6.37763C76.2601 6.76057 76.551 7.2176 76.7381 7.7192C76.9541 8.28149 77.062 8.87908 77.0559 9.48088C77.0612 10.0873 76.9534 10.6895 76.7381 11.2569C76.5451 11.7669 76.2503 12.233 75.8716 12.6271C75.4952 13.0112 75.0449 13.3164 74.5473 13.5243C74.0105 13.7458 73.4337 13.856 72.8524 13.8486Z" fill="white"/>
<path d="M19.3018 0.760498H26.2013C26.4278 0.760498 26.5376 1.03759 26.3725 1.19269L18.4677 8.62034C18.3715 8.71077 18.2215 8.71075 18.1253 8.62031L14.6372 5.34146C14.5321 5.24272 14.5321 5.07585 14.6372 4.97713L18.9942 0.882357C19.0775 0.804077 19.1875 0.760498 19.3018 0.760498Z" fill="url(#paint0_linear_254_26)"/>
<path d="M19.322 18.261H26.2013C26.4278 18.261 26.5376 17.984 26.3725 17.8289L18.4677 10.4012C18.3715 10.3108 18.2215 10.3108 18.1253 10.4012L14.6372 13.6801C14.5321 13.7788 14.5321 13.9457 14.6372 14.0444L18.9796 18.1254C19.0723 18.2125 19.1947 18.261 19.322 18.261Z" fill="url(#paint1_linear_254_26)"/>
<path d="M8.35286 0.896169C8.26015 0.809055 8.13771 0.760559 8.01049 0.760559H1.13107C0.904582 0.760559 0.794819 1.03763 0.959859 1.19273L9.81137 9.51138L0.959936 17.8288C0.794879 17.9839 0.904637 18.261 1.13113 18.261H8.01051C8.13772 18.261 8.26014 18.2125 8.35286 18.1254L17.3478 9.67506C17.4423 9.58636 17.4423 9.4364 17.3479 9.3477L8.35286 0.896169Z" fill="white"/>
<defs>
<linearGradient id="paint0_linear_254_26" x1="22.8748" y1="1.5" x2="16.4998" y2="7.25" gradientUnits="userSpaceOnUse">
<stop stop-color="#FFFFFF"/>
<stop offset="1" stop-color="#FFFFFF"/>
</linearGradient>
<linearGradient id="paint1_linear_254_26" x1="22.8748" y1="17.5215" x2="16.4998" y2="11.7715" gradientUnits="userSpaceOnUse">
<stop stop-color="#FFFFFF"/>
<stop offset="1" stop-color="#FFFFFF"/>
</linearGradient>
</defs>
</svg>



























